<?xml version="1.0" standalone="no"?><!DOCTYPE svg PUBLIC "-//W3C//DTD SVG 1.1//EN" "http://www.w3.org/Graphics/SVG/1.1/DTD/svg11.dtd"><svg class="icon" width="128px" height="128.00px" viewBox="0 0 1024 1024" version="1.1" xmlns="http://www.w3.org/2000/svg"><path d="M99.555556 518.186667V853.333333h810.666666V322.816L658.972444 520.092444l-211.555555-100.167111-213.347556 126.734223z" fill="#BAD4FF" /><path d="M238.520889 425.770667c-1.664 0-3.328-0.199111-4.963556-0.583111l-131.854222-31.559112a21.333333 21.333333 0 1 1 9.927111-41.500444l123.363556 29.539556 203.207111-122.225778a21.361778 21.361778 0 0 1 20.067555-1.038222l201.514667 94.634666 244.494222-189.297778a21.319111 21.319111 0 1 1 26.112 33.735112l-254.805333 197.262222a21.376 21.376 0 0 1-22.129778 2.446222l-203.022222-95.331556-200.917333 120.860445a21.404444 21.404444 0 0 1-10.993778 3.057778z" fill="#4E8CEE" /><path d="M917.333333 867.555556h-810.666666A21.333333 21.333333 0 0 1 85.333333 846.222222V518.186667a21.319111 21.319111 0 0 1 25.827556-20.849778l123.591111 26.680889 203.448889-122.368a21.361778 21.361778 0 0 1 20.067555-1.038222l201.514667 94.634666 244.494222-189.312A21.361778 21.361778 0 0 1 938.666667 322.801778V846.222222a21.333333 21.333333 0 0 1-21.333334 21.333334zM128 824.888889h768V366.307556l-220.416 170.666666a21.376 21.376 0 0 1-22.129778 2.446222l-203.022222-95.331555-200.917333 120.846222a21.347556 21.347556 0 0 1-15.488 2.574222L128 544.611556V824.888889z" fill="#4E8CEE" /></svg>