<?xml version="1.0" standalone="no"?><!DOCTYPE svg PUBLIC "-//W3C//DTD SVG 1.1//EN" "http://www.w3.org/Graphics/SVG/1.1/DTD/svg11.dtd"><svg class="icon" width="128px" height="127.63px" viewBox="0 0 1027 1024" version="1.1" xmlns="http://www.w3.org/2000/svg"><path fill="#05EAE8" d="M937.2 971.7H49c-25.2 0-45.7-20.5-45.7-45.7V384.2c0-25.2 20.5-45.7 45.7-45.7h878.7c25.2 0 45.7 20.5 45.7 45.7V591H943V384.2c0-8.4-6.8-15.2-15.3-15.2H49c-8.4 0-15.2 6.8-15.2 15.2V926c0 8.4 6.8 15.2 15.2 15.2h888.2c8.4 0 15.2-6.8 15.2-15.2V719.2H983V926c0 25.2-20.6 45.7-45.8 45.7z"  /><path fill="#05EAE8" d="M1012 745.5H724.1c-8.4 0-15.2-6.8-15.2-15.3V587.9c0-8.4 6.8-15.2 15.2-15.2H1012c8.4 0 15.3 6.8 15.3 15.2v142.4c0 8.4-6.9 15.2-15.3 15.2zM739.3 715h257.4V603.1H739.3V715zM778.3 369.3l-21.5-21.6 97.9-97.2L665.4 61.7 366.6 359.2l-21.5-21.6L654.6 29.4c6-5.9 15.6-5.9 21.5 0L887 239.6c2.9 2.9 4.5 6.8 4.5 10.8 0 4.1-1.6 8-4.5 10.8L778.3 369.3z"  /><path fill="#05EAE8" d="M235.3 357l-27-14.1 169.5-324c3.9-7.4 12.9-10.3 20.3-6.6l191.5 95.1-13.6 27.4-178.1-88.5L235.3 357zM823.4 654.9c0 10.3-8.3 18.6-18.6 18.6s-18.6-8.3-18.6-18.6 8.3-18.6 18.6-18.6c10.2 0 18.6 8.3 18.6 18.6z"  /></svg>