<?xml version="1.0" standalone="no"?><!DOCTYPE svg PUBLIC "-//W3C//DTD SVG 1.1//EN" "http://www.w3.org/Graphics/SVG/1.1/DTD/svg11.dtd"><svg class="icon" width="128px" height="128.00px" viewBox="0 0 1024 1024" version="1.1" xmlns="http://www.w3.org/2000/svg"><path fill="#05EAE8" d="M511.434148 372.451987c-1.003828 0-2.004458-0.038363-3.005089-0.086316-1.413031 0.038363-2.845244 0.057544-4.296637 0.057544-55.31921 0-131.245656-26.78685-198.150442-69.906678C235.074671 256.823203 192.741282 204.963042 192.741282 163.796522c0-18.951241 8.861815-35.098798 24.951828-45.469551 13.420599-8.65082 31.412769-13.03697 53.477793-13.036971 36.42871 0 82.671912 11.838132 129.870988 32.937692 18.989604-59.075571 61.77056-98.282389 110.395454-98.282389 48.628092 0 91.409047 39.203621 110.398651 98.282389 47.199076-21.09956 93.445475-32.937692 129.870988-32.937692 22.065025 0 40.057195 4.386151 53.48099 13.036971 16.086816 10.367556 24.948631 26.515113 24.948631 45.469551 0 41.16652-42.33339 93.023484-113.237501 138.720015-66.907983 43.119828-142.831232 69.906678-198.144048 69.906678h-0.006394c-1.448197 0-2.883607-0.019181-4.296637-0.057544-1.010221 0.047954-2.010852 0.086316-3.017877 0.086316z m-2.822865-44.858943c0.297312 0 0.594624 0.006394 0.891936 0.015985l1.045387 0.047953c0.591427 0.028772 1.186051 0.028772 1.771084 0l1.048584-0.047953c0.540277-0.019181 1.080553-0.019181 1.617633-0.003197 1.230808 0.038363 2.483994 0.060741 3.756361 0.060741 46.473379 0 114.733652-24.638531 173.90513-62.77119 68.030096-43.845525 92.726172-84.484556 92.726171-101.102058 0-3.730786-1.118916-5.709669-4.437301-7.848397-3.417489-2.202666-11.764603-5.898286-29.235678-5.898286-35.514395 0-85.881602 15.012656-134.73028 40.156299a22.384715 22.384715 0 0 1-32.282326-16.029272c-9.101583-51.844176-39.910137-89.474921-73.257033-89.474921-33.340501 0-64.149056 37.630745-73.257032 89.474921a22.378321 22.378321 0 0 1-32.282326 16.026075C357.042915 165.056102 306.678905 150.043445 271.161312 150.043445c-17.467878 0-25.811795 3.69562-29.229284 5.898286-3.321582 2.138728-4.440498 4.120808-4.440498 7.848397 0 16.617502 24.696076 57.256533 92.729369 101.102058 59.165084 38.132659 127.428554 62.77119 173.905129 62.77119 1.272367 0 2.522356-0.019181 3.753164-0.060741l0.732091-0.009591z"  /><path fill="#05EAE8" d="M516.549193 984.706865h-10.226893c-101.165995 0-196.718229 0-267.536024-29.085423-81.367575-33.417227-120.919659-102.067522-120.919659-209.870288 0-229.480091 176.555362-416.176029 393.567531-416.17603 217.015366 0 393.567531 186.695938 393.567532 416.17603 0 107.796372-39.555281 176.446667-120.926053 209.867091-70.827386 29.08862-166.373226 29.08862-267.526434 29.08862z m-7.685355-44.756642h7.682158c96.613606 0 187.869202 0 250.525304-25.735069 64.436777-26.463963 93.173738-78.423227 93.173738-168.464 0-204.803197-156.475614-371.419387-348.81089-371.419388S162.623259 540.947957 162.623259 745.751154c0 90.047167 28.733764 142.006431 93.167344 168.470394 62.646511 25.728675 153.908501 25.728675 250.531697 25.728675h2.541538z"  /><path fill="#05EAE8" d="M618.236284 627.037358h-213.601074a22.378321 22.378321 0 1 1 0-44.756642h213.601074a22.378321 22.378321 0 1 1 0 44.756642zM618.236284 726.998121h-213.601074a22.378321 22.378321 0 1 1 0-44.756642h213.601074a22.378321 22.378321 0 1 1 0 44.756642z"  /><path fill="#05EAE8" d="M511.434148 837.300865a22.378321 22.378321 0 0 1-22.378321-22.378321v-208.652268a22.378321 22.378321 0 1 1 44.756642 0v208.652268a22.378321 22.378321 0 0 1-22.378321 22.378321z"  /><path fill="#05EAE8" d="M512.195011 618.313009a22.295202 22.295202 0 0 1-14.235809-5.121438l-100.136593-82.671912a22.375124 22.375124 0 0 1-3.008285-31.502282 22.375124 22.375124 0 0 1 31.502282-3.008286l100.136592 82.671912a22.375124 22.375124 0 0 1-14.258187 39.632006z"  /><path fill="#05EAE8" d="M510.670088 618.313009a22.378321 22.378321 0 0 1-14.261384-39.632006l100.136593-82.671912a22.378321 22.378321 0 0 1 28.493996 34.510568l-100.136592 82.671912a22.282414 22.282414 0 0 1-14.232613 5.121438z"  /></svg>