<?xml version="1.0" standalone="no"?><!DOCTYPE svg PUBLIC "-//W3C//DTD SVG 1.1//EN" "http://www.w3.org/Graphics/SVG/1.1/DTD/svg11.dtd"><svg class="icon" width="128px" height="128.00px" viewBox="0 0 1024 1024" version="1.1" xmlns="http://www.w3.org/2000/svg"><path fill="#05EAE8" d="M787.0000001 887.00000029H236.9999999a100.0000002 100.0000002 0 0 1-100.00000019-100.00000019V236.9999999a100.0000002 100.0000002 0 0 1 100.00000019-100.00000019h550.0000002a100.0000002 100.0000002 0 0 1 100.00000019 100.00000019v550.0000002a100.0000002 100.0000002 0 0 1-100.00000019 100.00000019z m24.99999961-675H212.00000029v599.99999942h599.99999942V212.00000029zM387.0000002 712.00000039H287V437.00000029h100.0000002v275.0000001z m174.9999999 0h-100.0000002V311.99999961h100.0000002v400.00000078z m174.9999999 0h-100.0000002v-150.00000029h100.0000002v150.00000029z"  /></svg>