<?xml version="1.0" standalone="no"?><!DOCTYPE svg PUBLIC "-//W3C//DTD SVG 1.1//EN" "http://www.w3.org/Graphics/SVG/1.1/DTD/svg11.dtd"><svg class="icon" width="128px" height="128.00px" viewBox="0 0 1024 1024" version="1.1" xmlns="http://www.w3.org/2000/svg"><path fill="#05EAE8" d="M820.30848 447.99744 820.30848 311.91168c0-44.14848-36.28544-80.06528-80.88576-80.06528l-1.85728 0-40.46464-82.05056c-9.53344-19.32672-30.96576-32.31232-53.3312-32.31232-5.1392 0-10.19904 0.68608-15.04 2.03776L250.20032 225.3824c-4.21504 1.17888-7.98592 3.39712-11.01824 6.464l-3.2896 0c-44.60032 0-80.88576 35.9168-80.88576 80.06528l0 515.26656c0 44.14848 36.28544 80.06656 80.88576 80.06656l503.53152 0c44.60032 0 80.88576-35.91808 80.88576-80.06656L820.30976 691.0912c62.944-6.6496 111.65824-59.26656 111.65824-121.54624C931.96672 507.26272 883.25376 454.64576 820.30848 447.99744zM411.04 231.8464l231.22688-64.6656c0.42624-0.11904 0.91904-0.1792 1.46688-0.1792 3.53408 0 7.4816 2.44736 8.51968 4.5504l29.7344 60.29312L411.04 231.84512zM204.93184 311.91168c0-16.84608 13.88928-30.55104 30.96064-30.55104l503.53152 0c17.07136 0 30.96064 13.70496 30.96064 30.55104l0 135.3664-103.47136 0c-69.0304 0-125.1904 54.848-125.1904 122.2656 0 67.4176 56.16 122.2656 125.1904 122.2656l103.47136 0 0 135.36896c0 16.84608-13.88928 30.55232-30.96064 30.55232L235.89248 857.73056c-17.07136 0-30.96064-13.70624-30.96064-30.55232L204.93184 311.91168zM882.04288 569.54368c0 40.1152-33.76384 72.75136-75.26528 72.75136L666.91328 642.29504c-41.50144 0-75.26528-32.63616-75.26528-72.75136 0-40.1152 33.76384-72.75136 75.26528-72.75136l139.86432 0C848.27904 496.79232 882.04288 529.42848 882.04288 569.54368zM678.5792 513.09056c-31.7568 0-57.5936 25.57696-57.5936 57.01632 0 31.43808 25.8368 57.01504 57.5936 57.01504s57.5936-25.57696 57.5936-57.01504C736.1728 538.66752 710.336 513.09056 678.5792 513.09056zM686.24768 570.10688c0 3.9168-3.44064 7.10272-7.66848 7.10272s-7.66848-3.18592-7.66848-7.10272c0-3.9168 3.44064-7.104 7.66848-7.104S686.24768 566.19008 686.24768 570.10688z" /></svg>