<?xml version="1.0" standalone="no"?><!DOCTYPE svg PUBLIC "-//W3C//DTD SVG 1.1//EN" "http://www.w3.org/Graphics/SVG/1.1/DTD/svg11.dtd"><svg class="icon" width="128px" height="128.00px" viewBox="0 0 1024 1024" version="1.1" xmlns="http://www.w3.org/2000/svg"><path fill="#05EAE8" d="M423.347914 504.459257l0 16.395412 73.587995 0L496.935909 562.852178l-73.587995 0 0 16.395412 73.587995 0 0 64.389496 25.596981 0 0-64.389496 73.582879 0L596.11577 562.852178l-73.582879 0 0-41.99751 73.582879 0 0-16.395412-64.385403 0 84.385922-146.375765-29.599132 0-76.782757 137.575332-76.786851-137.575332-29.596062 0 84.385922 146.375765L423.347914 504.459257zM423.347914 504.459257M849.584622 862.391299 241.772462 862.391299c-12.458753 0-22.595624-10.135848-22.595624-22.594601l0-170.84097 20.466124 0 0 170.84097c0 1.154289 0.975211 2.128477 2.1295 2.128477l607.812159 0c1.155313 0 2.130524-0.974188 2.130524-2.128477L851.715145 163.993005c-0.001023-1.151219-0.976234-2.130524-2.130524-2.130524L241.772462 161.862481c-1.154289 0-2.1295 0.975211-2.1295 2.130524l0 171.181731-20.466124 0L219.176838 163.993005c0-12.459776 10.135848-22.596647 22.595624-22.596647l607.812159 0c12.450567 0 22.587438 10.132778 22.596647 22.588461l0 675.810856C872.181269 852.255451 862.044398 862.391299 849.584622 862.391299zM171.959443 656.618748l-20.466124 0 20.466124-0.056282L171.959443 656.618748zM239.642962 644.231627l-20.466124 0 0-78.295204 20.466124 0L239.642962 644.231627zM171.959443 553.602513l-20.466124 0 20.466124-0.055259L171.959443 553.602513zM239.642962 541.210275l-20.466124 0L219.176838 462.916095l20.466124 0L239.642962 541.210275zM239.642962 438.19404l-20.466124 0L219.176838 359.89986l20.466124 0L239.642962 438.19404zM171.959443 347.56288l-20.466124 0 20.466124-0.055259L171.959443 347.56288zM730.005153 151.630443l20.466124 0 0 700.528817-20.466124 0 0-700.528817ZM297.713542 357.795942 161.726382 357.795942c-5.65172 0-10.233062-4.581342-10.233062-10.233062s4.581342-10.233062 10.233062-10.233062l135.986137 0c5.65172 0 10.233062 4.581342 10.233062 10.233062S303.365262 357.795942 297.713542 357.795942zM297.713542 461.141682 161.726382 461.141682c-5.65172 0-10.233062-4.581342-10.233062-10.233062s4.581342-10.233062 10.233062-10.233062l135.986137 0c5.65172 0 10.233062 4.581342 10.233062 10.233062S303.365262 461.141682 297.713542 461.141682zM297.713542 564.487422 161.726382 564.487422c-5.65172 0-10.233062-4.582365-10.233062-10.233062s4.581342-10.233062 10.233062-10.233062l135.986137 0c5.65172 0 10.233062 4.582365 10.233062 10.233062S303.365262 564.487422 297.713542 564.487422zM297.713542 667.833161 161.726382 667.833161c-5.65172 0-10.233062-4.582365-10.233062-10.233062s4.581342-10.233062 10.233062-10.233062l135.986137 0c5.65172 0 10.233062 4.582365 10.233062 10.233062S303.365262 667.833161 297.713542 667.833161z" /></svg>