<?xml version="1.0" standalone="no"?><!DOCTYPE svg PUBLIC "-//W3C//DTD SVG 1.1//EN" "http://www.w3.org/Graphics/SVG/1.1/DTD/svg11.dtd"><svg class="icon" width="128px" height="128.00px" viewBox="0 0 1024 1024" version="1.1" xmlns="http://www.w3.org/2000/svg"><path fill="#05EAE8" d="M958 735.9H493.2c-49.3 0-89.4-40.1-89.4-89.4V539.3c0-49.3 40.1-89.4 89.4-89.4H958v286zM493.2 485.7c-29.6 0-53.6 24.1-53.6 53.6v107.3c0 29.6 24.1 53.6 53.6 53.6h429V485.7h-429z"  /><path fill="#05EAE8" d="M564.8 655.5c-34.5 0-62.6-28.1-62.6-62.6s28.1-62.6 62.6-62.6 62.6 28.1 62.6 62.6-28.2 62.6-62.6 62.6z m0-107.3c-24.6 0-44.7 20-44.7 44.7s20 44.7 44.7 44.7c24.6 0 44.7-20 44.7-44.7s-20.1-44.7-44.7-44.7zM886.5 306.9h-35.8V199.7c0-29.6-24.1-53.6-53.6-53.6H153.6c-29.6 0-53.6 24.1-53.6 53.6V289H64.2v-89.4c0-49.3 40.1-89.4 89.4-89.4h643.5c49.3 0 89.4 40.1 89.4 89.4v107.3z"  /><path fill="#05EAE8" d="M868.6 914.7h-715c-49.3 0-89.4-40.1-89.4-89.4V271.2h804.4c49.3 0 89.4 40.1 89.4 89.4v464.8c0 49.2-40.1 89.3-89.4 89.3zM100 306.9v518.4c0 29.6 24.1 53.6 53.6 53.6h715c29.6 0 53.6-24.1 53.6-53.6V360.5c0-29.6-24.1-53.6-53.6-53.6H100z"  /><path fill="#05EAE8" d="M362.9 798.5h-30.5c-4.9 0-8.9-4-8.9-8.9s4-8.9 8.9-8.9h30.5c4.9 0 8.9 4 8.9 8.9s-4 8.9-8.9 8.9z m-102 0h-53.6c-26.8 0-44.7-8-44.7-46.9V610.8c0-4.9 4-8.9 8.9-8.9s8.9 4 8.9 8.9v140.8c0 27.8 8.7 29 26.8 29h53.6c4.9 0 8.9 4 8.9 8.9 0.1 5-3.9 9-8.8 9z"  /></svg>