<?xml version="1.0" standalone="no"?><!DOCTYPE svg PUBLIC "-//W3C//DTD SVG 1.1//EN" "http://www.w3.org/Graphics/SVG/1.1/DTD/svg11.dtd"><svg class="icon" width="128px" height="128.00px" viewBox="0 0 1024 1024" version="1.1" xmlns="http://www.w3.org/2000/svg"><path fill="#05EAE8" d="M582.144 571.392c-9.728 0-18.944-3.584-26.112-10.24L297.984 323.072l-170.496 212.992-48.128-38.4 185.856-231.936c6.656-8.192 16.384-13.824 27.136-14.336 10.752-1.024 20.992 3.072 29.184 10.24l256.512 236.032 146.944-220.672 51.2 34.304-161.792 242.688c-6.144 9.216-16.384 15.36-27.648 16.896-1.536 0.512-3.072 0.512-4.608 0.512z"  /><path fill="#05EAE8" d="M887.808 111.616l-238.592 115.712 220.16 148.48zM79.872 497.664s1.536 46.592 48.128 38.4M136.192 808.448s1.536 46.592 48.128 38.4"  /><path fill="#05EAE8" d="M638.464 882.176c-9.728 0-18.944-3.584-26.112-10.24l-258.048-237.568L184.32 846.848l-48.128-38.4 185.856-231.936c6.656-8.192 16.384-13.824 27.136-14.336 10.752-1.024 20.992 3.072 29.184 10.24l256.512 236.032 146.944-220.672 51.2 34.304-162.304 242.688c-6.144 9.216-16.384 15.36-27.648 16.896-1.536 0-3.072 0.512-4.608 0.512z"  /><path fill="#05EAE8" d="M944.128 421.888l-238.08 116.224 219.648 148.48z"  /></svg>