<?xml version="1.0" standalone="no"?><!DOCTYPE svg PUBLIC "-//W3C//DTD SVG 1.1//EN" "http://www.w3.org/Graphics/SVG/1.1/DTD/svg11.dtd"><svg class="icon" width="128px" height="128.00px" viewBox="0 0 1024 1024" version="1.1" xmlns="http://www.w3.org/2000/svg"><path fill="#05EAE8" d="M839.76540498 427.9135872H184.23459502c-14.58641855 0-27.45678784-8.5802462-32.60493556-22.30864012s-0.85802462-28.31481246 10.29629543-37.7530833l338.91972505-277.99997701c6.00617233-5.14814772 15.44444316-5.14814772 21.45061552 0l338.91972504 277.99997701c11.15432006 9.43827083 15.44444316 24.02468937 10.29629544 37.7530833-4.29012309 13.72839391-17.16049241 22.30864012-31.74691096 22.30864012zM512 123.31484697L184.23459502 393.5926024l0.85802462 1.71604924h655.53080997l11.15432006-14.58641856-10.29629545 12.87036932L512 123.31484697z"  /><path fill="#05EAE8" d="M699.90739186 427.9135872H324.09260814c-6.86419697 0-13.72839391-4.29012309-15.44444316-11.15432005-2.57407386-6.86419697 0-13.72839391 5.14814773-18.87654164l187.90739183-154.44443168c6.00617233-5.14814772 15.44444316-5.14814772 21.45061552 0l187.90739185 154.44443168c5.14814772 4.29012309 7.72222158 12.01234468 5.14814774 18.87654164-2.57407386 6.86419697-8.5802462 11.15432006-16.30246779 11.15432005z m-329.48145423-33.46296019h283.14812474L512 278.61730324 370.42593763 394.45062701zM806.30244477 850.91972505H217.69755523c-9.43827083 0-16.30246778-7.72222158-16.30246781-16.30246781v-92.66665899c0-9.43827083 7.72222158-16.30246778 16.30246781-16.30246779h588.60488954c9.43827083 0 16.30246778 7.72222158 16.30246781 16.30246779v92.66665899c0 8.5802462-6.86419697 16.30246778-16.30246781 16.30246781z m-571.44439715-33.4629602h555.14192937v-59.20369879H234.85804762v59.20369879zM856.9258974 938.43823633H167.0741026c-9.43827083 0-16.30246778-7.72222158-16.30246776-16.30246781s7.72222158-16.30246778 16.30246776-16.30246777h690.70981939c9.43827083 0 16.30246778 7.72222158 16.3024678 16.30246777s-7.72222158 16.30246778-17.16049239 16.30246781z"  /><path fill="#05EAE8" d="M290.62964797 758.25306606c-9.43827083 0-16.30246778-7.72222158-16.30246782-16.30246781v-257.40738609c0-9.43827083 7.72222158-16.30246778 16.30246782-16.30246779 9.43827083 0 16.30246778 7.72222158 16.30246777 16.30246779v256.54936147c0 9.43827083-7.72222158 17.16049241-16.30246777 17.16049243zM438.20988266 758.25306606c-9.43827083 0-16.30246778-7.72222158-16.3024678-16.30246781v-257.40738609c0-9.43827083 7.72222158-16.30246778 16.3024678-16.30246779 9.43827083 0 16.30246778 7.72222158 16.30246777 16.30246779v256.54936147c0 9.43827083-6.86419697 17.16049241-16.30246777 17.16049243zM585.79011734 758.25306606c-9.43827083 0-16.30246778-7.72222158-16.30246777-16.30246781v-257.40738609c0-9.43827083 7.72222158-16.30246778 16.30246777-16.30246779 9.43827083 0 16.30246778 7.72222158 16.3024678 16.30246779v256.54936147c0.85802462 9.43827083-6.86419697 17.16049241-16.3024678 17.16049243zM733.37035203 758.25306606c-9.43827083 0-16.30246778-7.72222158-16.30246777-16.30246781v-257.40738609c0-9.43827083 7.72222158-16.30246778 16.30246777-16.30246779 9.43827083 0 16.30246778 7.72222158 16.30246782 16.30246779v256.54936147c0.85802462 9.43827083-6.86419697 17.16049241-16.30246782 17.16049243z"  /></svg>