<?xml version="1.0" standalone="no"?><!DOCTYPE svg PUBLIC "-//W3C//DTD SVG 1.1//EN" "http://www.w3.org/Graphics/SVG/1.1/DTD/svg11.dtd"><svg class="icon" width="128px" height="128.00px" viewBox="0 0 1024 1024" version="1.1" xmlns="http://www.w3.org/2000/svg"><path fill="#05EAE8" d="M696.097902 559.907103c-42.520419-60.956304-104.125499-107.608833-176.158069-131.290185 54.034661-35.374672 89.737814-96.43126 89.737814-165.837003 0-109.399619-88.685855-198.084451-198.084451-198.084451s-198.084451 88.685855-198.084451 198.084451c0 69.413929 35.712363 130.478703 89.75828 165.850305C165.089989 474.051713 65.262376 603.972714 64.951291 757.275239l-0.007163 0 0 97.494475 49.431829 0.058328 0.088004-96.836489 0.001023 0c0-163.836439 133.290749-297.127188 297.127188-297.127188 87.806835 0 166.836773 38.288025 221.279732 99.042737L362.071316 559.907103l0 396.168901 594.254376 0L956.325691 559.907103 696.097902 559.907103zM411.592173 411.343509c-81.918731 0-148.563594-66.644863-148.563594-148.563594s66.644863-148.563594 148.563594-148.563594c81.918731 0 148.563594 66.644863 148.563594 148.563594S493.510904 411.343509 411.592173 411.343509zM906.803811 906.555148 411.592173 906.555148l0-297.127188 495.211639 0L906.803811 906.555148zM664.307871 708.180078 763.350608 856.743672 825.107137 733.231637 859.345939 733.231637 859.345939 683.709757 794.543028 683.709757 757.25682 758.282173 658.215106 609.718579 555.448558 815.250652 480.68376 740.484831 445.670316 775.498276 568.989969 898.817929Z" /></svg>