<?xml version="1.0" standalone="no"?><!DOCTYPE svg PUBLIC "-//W3C//DTD SVG 1.1//EN" "http://www.w3.org/Graphics/SVG/1.1/DTD/svg11.dtd"><svg class="icon" width="128px" height="128.00px" viewBox="0 0 1024 1024" version="1.1" xmlns="http://www.w3.org/2000/svg"><path fill="#05EAE8" d="M908.003556 887.921778l84.992 74.296889a28.842667 28.842667 0 0 1 0 38.115555c-15.701333 18.887111-38.343111 4.209778-39.822223 2.730667l-83.569777-73.102222a240.696889 240.696889 0 0 1-158.663112 59.733333c-135.566222 0-245.418667-112.810667-245.418666-251.960889 0-139.207111 109.909333-252.017778 245.418666-252.017778s245.418667 112.810667 245.418667 252.017778c0 56.32-17.976889 108.259556-48.355555 150.186667z m-384.796445-150.186667c0 106.382222 84.081778 192.625778 187.733333 192.625778 103.651556 0 187.676444-86.243556 187.676445-192.625778S814.592 544.995556 710.940444 544.995556c-103.651556 0-187.733333 86.357333-187.733333 192.739555z m306.346667-332.913778V197.290667c0-61.610667-59.278222-89.941333-87.381334-89.941334H239.786667c-39.367111 0-80.213333 39.936-87.381334 114.176v589.539556c0 92.273778 65.308444 89.998222 87.381334 89.998222H420.408889c17.123556 0 31.118222 14.449778 31.118222 32.199111a31.744 31.744 0 0 1-31.118222 32.256H235.064889c-53.873778 0-145.009778-34.702222-145.009778-125.326222V216.632889C90.055111 94.72 164.408889 42.780444 235.064889 42.780444h511.829333c79.758222 0 145.066667 51.2 145.066667 149.560889v212.650667a31.857778 31.857778 0 0 1-31.232 32.142222 31.857778 31.857778 0 0 1-31.175111-32.312889zM364.088889 229.831111h347.363555a28.444444 28.444444 0 0 1 28.444445 28.444445v2.389333a28.444444 28.444444 0 0 1-28.444445 28.444444H364.088889a28.444444 28.444444 0 0 1-28.444445-28.444444V258.275556a28.444444 28.444444 0 0 1 28.444445-28.444445zM260.323556 289.109333a28.842667 28.842667 0 1 1 0-57.742222 28.842667 28.842667 0 0 1 0 57.742222z m0 151.04a28.842667 28.842667 0 1 1 0-57.685333 28.842667 28.842667 0 0 1 0 57.685333z m0 145.578667a28.842667 28.842667 0 1 1 0-57.742222 28.842667 28.842667 0 0 1 0 57.742222zM364.088889 382.520889h231.822222a28.444444 28.444444 0 0 1 28.444445 28.444444v2.389334a28.444444 28.444444 0 0 1-28.444445 28.444444H364.088889a28.444444 28.444444 0 0 1-28.444445-28.444444v-2.389334a28.444444 28.444444 0 0 1 28.444445-28.444444z m0 145.521778h51.2a28.444444 28.444444 0 0 1 28.444444 28.444444v2.389333a28.444444 28.444444 0 0 1-28.444444 28.444445h-51.2a28.444444 28.444444 0 0 1-28.444445-28.444445v-2.389333a28.444444 28.444444 0 0 1 28.444445-28.444444z"  /></svg>